<svg version="1.1" id="Layer_1" xmlns="http://www.w3.org/2000/svg" xmlns:xlink="http://www.w3.org/1999/xlink" x="0px" y="0px"
	 width="100%" viewBox="0 0 730 336" enable-background="new 0 0 730 336" xml:space="preserve">
<path fill="#FFFFFF" opacity="1.000000" stroke="none" 
	d="
M204.531342,1.000004 
	C205.485214,1.663695 205.865204,2.783652 206.471252,2.923407 
	C217.560532,5.480649 227.659714,10.427555 235.559402,18.368158 
	C245.159729,28.018208 253.287918,39.118721 262.690979,48.983597 
	C270.062958,56.717602 278.276398,63.674923 286.356232,70.701019 
	C293.235779,76.683357 300.529419,82.186562 307.512207,88.053680 
	C318.781952,97.522789 330.075531,106.971161 341.102264,116.718727 
	C346.709442,121.675415 351.755798,127.266365 357.057983,132.568329 
	C358.114960,133.625259 359.082062,134.803940 360.262878,135.699387 
	C364.390106,138.829300 364.256927,141.460632 359.765869,144.024689 
	C349.260101,150.022751 338.164215,151.004959 326.615509,147.868622 
	C307.460663,142.666656 289.257446,135.196320 272.154053,125.065903 
	C270.173218,123.892639 267.807770,123.368660 265.450287,122.910034 
	C270.491211,126.875450 273.019928,132.043396 273.992798,138.089157 
	C275.227631,145.762848 270.097748,149.084030 262.078003,150.747711 
	C245.161499,154.257050 227.993195,154.748627 210.643539,153.250931 
	C199.833893,152.317795 188.829285,153.694534 177.910400,153.962784 
	C162.494492,154.341522 147.069016,155.036621 131.665787,154.718155 
	C127.940460,154.641129 124.143677,151.348373 120.632721,149.133392 
	C115.322327,145.783218 110.021889,142.346970 105.122841,138.438843 
	C101.645226,135.664627 101.960152,131.631302 106.046677,129.659256 
	C112.357956,126.613617 118.932320,123.391624 125.733826,122.233208 
	C140.003128,119.802895 154.455276,118.070839 168.902206,117.158508 
	C185.108994,116.135040 201.406937,115.767174 217.639160,116.168167 
	C232.231537,116.528664 246.988525,116.852203 261.028809,121.943588 
	C261.556854,122.135063 262.267731,121.822273 264.326996,121.566200 
	C230.810989,98.427200 202.638275,71.051849 175.919006,41.234333 
	C168.839203,49.470257 162.126846,57.261692 155.433899,65.069763 
	C149.578156,71.901161 144.097809,79.097008 137.821350,85.515533 
	C127.267426,96.308357 116.557060,106.997635 105.294640,117.037376 
	C85.318344,134.845016 63.100838,148.589798 36.323795,154.178925 
	C24.899426,156.563522 13.730934,160.058395 1.457631,160.000000 
	C1.000000,159.555557 1.000000,159.111099 1.365039,158.331757 
	C12.965016,145.689072 24.320282,133.488266 35.392147,121.035515 
	C42.650009,112.872452 49.551228,104.389000 56.516369,95.969780 
	C65.645004,84.935417 74.614479,73.769073 83.774231,62.760860 
	C91.292984,53.724800 98.910446,44.767845 106.627319,35.900414 
	C116.499878,24.555883 124.076164,11.121894 136.914322,2.450176 
	C137.158142,2.285477 136.980820,1.497288 137.000000,1.000000 
	C159.354233,1.000000 181.708450,1.000000 204.531342,1.000004 
z"/>
<path fill="#FFFFFF" opacity="1.000000" stroke="none" 
	d="
M731.000000,125.531334 
	C730.334106,126.648529 729.193115,127.232162 729.093933,127.958130 
	C728.825806,129.920456 729.023865,131.943634 728.996460,133.942108 
	C728.668640,157.847580 728.496033,181.756744 727.937012,205.656876 
	C727.617310,219.328796 726.815430,232.995361 725.955017,246.646973 
	C725.161194,259.241852 724.279297,271.844147 722.906799,284.385223 
	C721.896240,293.619232 720.964294,302.770721 716.373474,311.442383 
	C708.313965,326.666138 685.819214,329.988831 674.246460,318.580994 
	C667.831787,312.257660 663.796021,304.001556 662.206848,295.292786 
	C660.049072,283.468140 658.894165,271.409088 658.106506,259.398254 
	C657.015503,242.764069 656.664856,226.081268 655.999634,209.419205 
	C655.663757,201.004990 655.247803,192.592880 655.018860,184.175720 
	C654.617859,169.433548 654.371826,154.687210 653.986511,139.944550 
	C653.723022,129.862686 653.388977,119.781906 652.987122,109.704605 
	C652.369080,94.206566 651.748230,78.707787 650.969360,63.217316 
	C650.457947,53.044018 649.689087,42.883236 648.987854,32.720135 
	C648.728821,28.965803 647.926331,25.200291 648.114502,21.477423 
	C648.304504,17.719324 649.872375,14.270415 654.164734,13.349971 
	C669.739197,10.010237 685.154053,9.788323 699.681763,17.345318 
	C714.643799,25.128248 723.265076,38.076073 728.013062,53.912998 
	C728.689026,56.167622 729.543579,58.368687 730.657715,60.297268 
	C731.000000,81.687561 731.000000,103.375122 731.000000,125.531334 
z"/>
<path fill="#FFFFFF" opacity="1.000000" stroke="none" 
	d="
M421.468384,337.000000 
	C420.755463,336.255707 420.740997,335.238220 420.231232,334.808777 
	C414.297668,329.810669 415.584991,323.579376 416.925873,317.199615 
	C419.048218,307.102051 420.781586,296.920288 423.028625,286.852081 
	C425.617401,275.252808 428.924713,263.806763 431.277740,252.164383 
	C433.044434,243.423203 434.407196,234.509811 434.886078,225.615829 
	C436.350189,198.424438 437.556488,171.212830 438.348419,143.994110 
	C438.774933,129.333939 438.351868,114.637253 437.923889,99.968369 
	C437.656097,90.790184 436.959717,81.599716 435.924286,72.475075 
	C434.680298,61.512466 433.025970,50.588711 431.246216,39.697662 
	C430.264496,33.690033 428.295746,27.827700 427.574768,21.803776 
	C427.373383,20.121336 429.640442,17.392366 431.461487,16.388414 
	C434.474487,14.727324 437.983795,13.433821 441.390564,13.111359 
	C456.614319,11.670392 470.586884,15.101785 483.490540,23.719893 
	C491.553589,29.105064 494.994507,36.319641 496.068848,45.528355 
	C497.441254,57.291664 499.618011,68.962791 500.922455,80.731911 
	C502.275604,92.940056 503.396332,105.201073 503.915070,117.468719 
	C504.879761,140.283020 506.373016,163.148834 505.716858,185.937668 
	C505.016327,210.266846 504.377472,234.915222 495.851685,258.198059 
	C492.837463,266.429504 487.947601,273.965912 484.028748,281.876465 
	C479.682007,290.650757 476.069672,299.852081 471.051025,308.215424 
	C463.693054,320.477173 453.573151,330.189301 440.706818,336.681458 
	C434.645599,337.000000 428.291199,337.000000 421.468384,337.000000 
z"/>

<path fill="#FFFFFF" opacity="1.000000" stroke="none" 
	d="
M156.999268,190.000000 
	C178.896149,188.999557 200.314590,187.953796 221.737869,187.018387 
	C231.983765,186.571014 242.284729,185.562897 252.479492,186.170975 
	C270.091217,187.221466 287.687500,188.950760 305.197449,191.138199 
	C316.611511,192.564117 322.794403,203.170700 320.836060,214.047729 
	C320.573029,215.508606 319.012207,216.916550 317.746216,217.986908 
	C309.266479,225.156006 300.613617,232.121918 292.187805,239.352890 
	C277.019196,252.370529 261.850494,265.392792 246.904999,278.664429 
	C231.542679,292.306183 213.894531,302.427063 195.893051,311.886658 
	C181.372284,319.517151 165.841690,324.820709 149.672073,327.859436 
	C146.789459,328.401184 143.603592,327.329285 140.557739,327.002502 
	C141.315613,324.196320 141.724640,321.234772 142.893005,318.611420 
	C147.430801,308.422760 154.140839,299.707062 161.806473,291.681885 
	C168.093903,285.099579 174.090469,278.215515 180.669083,271.940216 
	C194.522141,258.725800 208.702942,245.855499 222.666168,232.755447 
	C224.648499,230.895630 226.166153,228.540512 227.898880,226.414642 
	C227.538406,225.804565 227.177917,225.194489 226.817444,224.584412 
	C217.826218,225.047806 208.826782,225.392441 199.846390,226.012726 
	C192.832993,226.497147 185.856674,227.569931 178.840485,227.952148 
	C158.096405,229.082199 137.348969,230.395096 116.586014,230.827133 
	C106.732582,231.032166 97.069260,228.575256 88.609009,222.915359 
	C84.033928,219.854630 80.952805,210.972397 83.158775,206.122971 
	C83.828323,204.651093 85.958572,203.659561 87.616302,202.850754 
	C99.811241,196.900848 112.810211,194.089554 126.268456,192.968445 
	C136.365601,192.127319 146.438904,190.999939 156.999268,190.000000 
z"/>
<path fill="#FFFFFF" opacity="1.000000" stroke="none" 
	d="
M596.660522,51.164661 
	C608.126526,60.993500 612.733032,73.806381 613.881409,87.895531 
	C614.807678,99.259399 615.457458,110.755348 614.808899,122.111549 
	C613.906677,137.907455 611.622620,153.622070 610.038757,169.382401 
	C609.236206,177.368546 608.999451,185.422897 607.925354,193.367783 
	C606.201721,206.117172 604.966858,218.844910 599.297974,230.929840 
	C595.202515,239.660568 593.774170,249.625519 590.958191,258.980377 
	C589.532715,263.715698 587.804504,268.373169 585.973145,272.970123 
	C582.512451,281.657013 571.956238,285.418243 564.532959,283.642456 
	C561.167114,282.837280 557.432983,278.751984 556.077942,275.289124 
	C552.417664,265.934937 549.030579,256.283447 547.229919,246.439911 
	C544.946106,233.955276 544.126465,221.182175 543.071472,208.500504 
	C542.360046,199.948334 542.282837,191.340805 542.011963,182.755203 
	C541.630859,170.673523 541.016663,158.587875 541.068176,146.506317 
	C541.165161,123.757828 541.542480,101.008133 542.078735,78.265434 
	C542.231934,71.769051 542.983398,65.235291 544.076477,58.823662 
	C546.110840,46.889706 555.879456,44.490822 565.274963,45.107346 
	C571.127136,45.491360 576.943115,46.800423 582.784424,46.864605 
	C587.859314,46.920372 592.513306,47.314190 596.660522,51.164661 
z"/>
</svg>